<svg width="280" height="29" viewBox="0 0 280 29" fill="none" xmlns="http://www.w3.org/2000/svg">
<path d="M0.84 28V23.36H4.52V4.64H0.84V-1.90735e-06H15.24C16.9467 -1.90735e-06 18.4267 0.293332 19.68 0.879999C20.96 1.44 21.9467 2.25333 22.64 3.32C23.36 4.36 23.72 5.61333 23.72 7.08V7.48C23.72 8.76 23.48 9.81333 23 10.64C22.52 11.44 21.9467 12.0667 21.28 12.52C20.64 12.9467 20.0267 13.2533 19.44 13.44V14.16C20.0267 14.32 20.6667 14.6267 21.36 15.08C22.0533 15.5067 22.64 16.1333 23.12 16.96C23.6267 17.7867 23.88 18.8667 23.88 20.2V20.6C23.88 22.1467 23.52 23.48 22.8 24.6C22.08 25.6933 21.08 26.5333 19.8 27.12C18.5467 27.7067 17.08 28 15.4 28H0.84ZM9.8 23.2H14.76C15.9067 23.2 16.8267 22.92 17.52 22.36C18.24 21.8 18.6 21 18.6 19.96V19.56C18.6 18.52 18.2533 17.72 17.56 17.16C16.8667 16.6 15.9333 16.32 14.76 16.32H9.8V23.2ZM9.8 11.52H14.68C15.7733 11.52 16.6667 11.24 17.36 10.68C18.08 10.12 18.44 9.34667 18.44 8.36V7.96C18.44 6.94667 18.0933 6.17333 17.4 5.64C16.7067 5.08 15.8 4.8 14.68 4.8H9.8V11.52ZM37.4025 28.56C35.4292 28.56 33.6825 28.1467 32.1625 27.32C30.6692 26.4667 29.4958 25.28 28.6425 23.76C27.8158 22.2133 27.4025 20.4 27.4025 18.32V17.84C27.4025 15.76 27.8158 13.96 28.6425 12.44C29.4692 10.8933 30.6292 9.70667 32.1225 8.88C33.6158 8.02667 35.3492 7.6 37.3225 7.6C39.2692 7.6 40.9625 8.04 42.4025 8.92C43.8425 9.77333 44.9625 10.9733 45.7625 12.52C46.5625 14.04 46.9625 15.8133 46.9625 17.84V19.56H32.5225C32.5758 20.92 33.0825 22.0267 34.0425 22.88C35.0025 23.7333 36.1758 24.16 37.5625 24.16C38.9758 24.16 40.0158 23.8533 40.6825 23.24C41.3492 22.6267 41.8558 21.9467 42.2025 21.2L46.3225 23.36C45.9492 24.0533 45.4025 24.8133 44.6825 25.64C43.9892 26.44 43.0558 27.1333 41.8825 27.72C40.7092 28.28 39.2158 28.56 37.4025 28.56ZM32.5625 15.8H41.8425C41.7358 14.6533 41.2692 13.7333 40.4425 13.04C39.6425 12.3467 38.5892 12 37.2825 12C35.9225 12 34.8425 12.3467 34.0425 13.04C33.2425 13.7333 32.7492 14.6533 32.5625 15.8ZM51.4484 28V8.16H56.4084V10.76H57.1284C57.4484 10.0667 58.0484 9.41333 58.9284 8.8C59.8084 8.16 61.1418 7.84 62.9284 7.84C64.4751 7.84 65.8218 8.2 66.9684 8.92C68.1418 9.61333 69.0484 10.5867 69.6884 11.84C70.3284 13.0667 70.6484 14.5067 70.6484 16.16V28H65.6084V16.56C65.6084 15.0667 65.2351 13.9467 64.4884 13.2C63.7684 12.4533 62.7284 12.08 61.3684 12.08C59.8218 12.08 58.6218 12.6 57.7684 13.64C56.9151 14.6533 56.4884 16.08 56.4884 17.92V28H51.4484ZM85.4169 28.56C83.4969 28.56 81.7502 28.16 80.1769 27.36C78.6302 26.56 77.4035 25.4 76.4969 23.88C75.5902 22.36 75.1369 20.52 75.1369 18.36V17.8C75.1369 15.64 75.5902 13.8 76.4969 12.28C77.4035 10.76 78.6302 9.6 80.1769 8.8C81.7502 8 83.4969 7.6 85.4169 7.6C87.3102 7.6 88.9369 7.93333 90.2969 8.6C91.6569 9.26667 92.7502 10.1867 93.5769 11.36C94.4302 12.5067 94.9902 13.8133 95.2569 15.28L90.3769 16.32C90.2702 15.52 90.0302 14.8 89.6569 14.16C89.2835 13.52 88.7502 13.0133 88.0569 12.64C87.3902 12.2667 86.5502 12.08 85.5369 12.08C84.5235 12.08 83.6035 12.3067 82.7769 12.76C81.9769 13.1867 81.3369 13.84 80.8569 14.72C80.4035 15.5733 80.1769 16.6267 80.1769 17.88V18.28C80.1769 19.5333 80.4035 20.6 80.8569 21.48C81.3369 22.3333 81.9769 22.9867 82.7769 23.44C83.6035 23.8667 84.5235 24.08 85.5369 24.08C87.0569 24.08 88.2035 23.6933 88.9769 22.92C89.7769 22.12 90.2835 21.08 90.4969 19.8L95.3769 20.96C95.0302 22.3733 94.4302 23.6667 93.5769 24.84C92.7502 25.9867 91.6569 26.8933 90.2969 27.56C88.9369 28.2267 87.3102 28.56 85.4169 28.56ZM99.5344 28V-1.90735e-06H104.574V10.6H105.294C105.508 10.1733 105.841 9.74667 106.294 9.32C106.748 8.89333 107.348 8.54667 108.094 8.28C108.868 7.98667 109.841 7.84 111.014 7.84C112.561 7.84 113.908 8.2 115.054 8.92C116.228 9.61333 117.134 10.5867 117.774 11.84C118.414 13.0667 118.734 14.5067 118.734 16.16V28H113.694V16.56C113.694 15.0667 113.321 13.9467 112.574 13.2C111.854 12.4533 110.814 12.08 109.454 12.08C107.908 12.08 106.708 12.6 105.854 13.64C105.001 14.6533 104.574 16.08 104.574 17.92V28H99.5344Z" fill="#191A23"/>
<path d="M124.023 28V-1.90735e-06H133.823L138.663 24.4H139.383L144.223 -1.90735e-06H154.023V28H148.903V3.88H148.183L143.383 28H134.663L129.863 3.88H129.143V28H124.023ZM165.616 28.56C164.203 28.56 162.936 28.32 161.816 27.84C160.696 27.3333 159.803 26.6133 159.136 25.68C158.496 24.72 158.176 23.56 158.176 22.2C158.176 20.84 158.496 19.7067 159.136 18.8C159.803 17.8667 160.71 17.1733 161.856 16.72C163.03 16.24 164.363 16 165.856 16H171.296V14.88C171.296 13.9467 171.003 13.1867 170.416 12.6C169.83 11.9867 168.896 11.68 167.616 11.68C166.363 11.68 165.43 11.9733 164.816 12.56C164.203 13.12 163.803 13.8533 163.616 14.76L158.976 13.2C159.296 12.1867 159.803 11.2667 160.496 10.44C161.216 9.58667 162.163 8.90667 163.336 8.4C164.536 7.86667 165.99 7.6 167.696 7.6C170.31 7.6 172.376 8.25333 173.896 9.56C175.416 10.8667 176.176 12.76 176.176 15.24V22.64C176.176 23.44 176.55 23.84 177.296 23.84H178.896V28H175.536C174.55 28 173.736 27.76 173.096 27.28C172.456 26.8 172.136 26.16 172.136 25.36V25.32H171.376C171.27 25.64 171.03 26.0667 170.656 26.6C170.283 27.1067 169.696 27.56 168.896 27.96C168.096 28.36 167.003 28.56 165.616 28.56ZM166.496 24.48C167.91 24.48 169.056 24.0933 169.936 23.32C170.843 22.52 171.296 21.4667 171.296 20.16V19.76H166.216C165.283 19.76 164.55 19.96 164.016 20.36C163.483 20.76 163.216 21.32 163.216 22.04C163.216 22.76 163.496 23.3467 164.056 23.8C164.616 24.2533 165.43 24.48 166.496 24.48ZM182.581 28V8.16H187.541V10.4H188.261C188.555 9.6 189.035 9.01333 189.701 8.64C190.395 8.26667 191.195 8.08 192.101 8.08H194.501V12.56H192.021C190.741 12.56 189.688 12.9067 188.861 13.6C188.035 14.2667 187.621 15.3067 187.621 16.72V28H182.581ZM198.441 28V-1.90735e-06H203.481V15.48H204.201L210.761 8.16H217.321L208.161 17.76L217.641 28H211.161L204.201 20.12H203.481V28H198.441Z" fill="#FA4032"/>
<path d="M230.059 28.56C228.085 28.56 226.339 28.1467 224.819 27.32C223.325 26.4667 222.152 25.28 221.299 23.76C220.472 22.2133 220.059 20.4 220.059 18.32V17.84C220.059 15.76 220.472 13.96 221.299 12.44C222.125 10.8933 223.285 9.70667 224.779 8.88C226.272 8.02667 228.005 7.6 229.979 7.6C231.925 7.6 233.619 8.04 235.059 8.92C236.499 9.77333 237.619 10.9733 238.419 12.52C239.219 14.04 239.619 15.8133 239.619 17.84V19.56H225.179C225.232 20.92 225.739 22.0267 226.699 22.88C227.659 23.7333 228.832 24.16 230.219 24.16C231.632 24.16 232.672 23.8533 233.339 23.24C234.005 22.6267 234.512 21.9467 234.859 21.2L238.979 23.36C238.605 24.0533 238.059 24.8133 237.339 25.64C236.645 26.44 235.712 27.1333 234.539 27.72C233.365 28.28 231.872 28.56 230.059 28.56ZM225.219 15.8H234.499C234.392 14.6533 233.925 13.7333 233.099 13.04C232.299 12.3467 231.245 12 229.939 12C228.579 12 227.499 12.3467 226.699 13.04C225.899 13.7333 225.405 14.6533 225.219 15.8ZM250.265 28.56C248.851 28.56 247.585 28.32 246.465 27.84C245.345 27.3333 244.451 26.6133 243.785 25.68C243.145 24.72 242.825 23.56 242.825 22.2C242.825 20.84 243.145 19.7067 243.785 18.8C244.451 17.8667 245.358 17.1733 246.505 16.72C247.678 16.24 249.011 16 250.505 16H255.945V14.88C255.945 13.9467 255.651 13.1867 255.065 12.6C254.478 11.9867 253.545 11.68 252.265 11.68C251.011 11.68 250.078 11.9733 249.465 12.56C248.851 13.12 248.451 13.8533 248.265 14.76L243.625 13.2C243.945 12.1867 244.451 11.2667 245.145 10.44C245.865 9.58667 246.811 8.90667 247.985 8.4C249.185 7.86667 250.638 7.6 252.345 7.6C254.958 7.6 257.025 8.25333 258.545 9.56C260.065 10.8667 260.825 12.76 260.825 15.24V22.64C260.825 23.44 261.198 23.84 261.945 23.84H263.545V28H260.185C259.198 28 258.385 27.76 257.745 27.28C257.105 26.8 256.785 26.16 256.785 25.36V25.32H256.025C255.918 25.64 255.678 26.0667 255.305 26.6C254.931 27.1067 254.345 27.56 253.545 27.96C252.745 28.36 251.651 28.56 250.265 28.56ZM251.145 24.48C252.558 24.48 253.705 24.0933 254.585 23.32C255.491 22.52 255.945 21.4667 255.945 20.16V19.76H250.865C249.931 19.76 249.198 19.96 248.665 20.36C248.131 20.76 247.865 21.32 247.865 22.04C247.865 22.76 248.145 23.3467 248.705 23.8C249.265 24.2533 250.078 24.48 251.145 24.48ZM273.384 28C272.078 28 271.011 27.6 270.184 26.8C269.384 25.9733 268.984 24.88 268.984 23.52V12.32H264.024V8.16H268.984V2H274.024V8.16H279.464V12.32H274.024V22.64C274.024 23.44 274.398 23.84 275.144 23.84H278.984V28H273.384Z" fill="#FAB12F"/>
</svg>
